<mxfile host="drawio-plugin" modified="2022-06-21T19:11:14.711Z" agent="5.0 (X11; Linux x86_64) AppleWebKit/537.36 (KHTML, like Gecko) Chrome/97.0.4692.45 Safari/537.36" etag="8WRneAmlsLvozX_fX-xA" version="15.5.4" type="embed"><diagram id="6a731a19-8d31-9384-78a2-239565b7b9f0" name="Page-1"><mxGraphModel dx="2907" dy="1919" grid="1" gridSize="10" guides="1" tooltips="1" connect="1" arrows="1" fold="1" page="1" pageScale="1" pageWidth="1169" pageHeight="827" background="none" math="0" shadow="0"><root><mxCell id="0"/><mxCell id="1" parent="0"/><mxCell id="1746" value="" style="edgeStyle=none;rounded=0;jumpStyle=none;html=1;shadow=0;labelBackgroundColor=none;startArrow=none;startFill=0;endArrow=classic;endFill=1;jettySize=auto;orthogonalLoop=1;strokeColor=#2F5B7C;strokeWidth=3;fontFamily=Helvetica;fontSize=16;fontColor=#23445D;spacing=5;" parent="1" source="1749" target="1771" edge="1"><mxGeometry relative="1" as="geometry"/></mxCell><mxCell id="1748" value="" style="edgeStyle=none;rounded=0;jumpStyle=none;html=1;shadow=0;labelBackgroundColor=none;startArrow=none;startFill=0;endArrow=classic;endFill=1;jettySize=auto;orthogonalLoop=1;strokeColor=#2F5B7C;strokeWidth=3;fontFamily=Helvetica;fontSize=16;fontColor=#23445D;spacing=5;entryX=1;entryY=0.5;entryDx=0;entryDy=0;" parent="1" source="1749" target="1756" edge="1"><mxGeometry relative="1" as="geometry"/></mxCell><mxCell id="1749" value="Url Detection" style="rounded=1;whiteSpace=wrap;html=1;shadow=0;labelBackgroundColor=none;strokeColor=none;strokeWidth=3;fillColor=#2F5B7C;fontFamily=Helvetica;fontSize=16;fontColor=#FFFFFF;align=center;fontStyle=1;spacing=5;arcSize=7;perimeterSpacing=2;" parent="1" vertex="1"><mxGeometry x="495" y="370" width="150" height="70" as="geometry"/></mxCell><mxCell id="1753" value="TLD" style="rounded=1;whiteSpace=wrap;html=1;shadow=0;labelBackgroundColor=none;strokeColor=none;strokeWidth=3;fillColor=#e85642;fontFamily=Helvetica;fontSize=14;fontColor=#FFFFFF;align=center;spacing=5;fontStyle=1;arcSize=7;perimeterSpacing=2;" parent="1" vertex="1"><mxGeometry x="-176.00000000000003" y="231" width="150" height="60" as="geometry"/></mxCell><mxCell id="1754" value="Validation" style="rounded=1;whiteSpace=wrap;html=1;shadow=0;labelBackgroundColor=none;strokeColor=none;strokeWidth=3;fillColor=#1699D3;fontFamily=Helvetica;fontSize=14;fontColor=#FFFFFF;align=center;spacing=5;fontStyle=0;arcSize=7;perimeterSpacing=2;" parent="1" vertex="1"><mxGeometry x="170" y="80" width="150" height="60" as="geometry"/></mxCell><mxCell id="1756" value="Detection" style="rounded=1;whiteSpace=wrap;html=1;shadow=0;labelBackgroundColor=none;strokeColor=none;strokeWidth=3;fillColor=#F02B24;fontFamily=Helvetica;fontSize=14;fontColor=#FFFFFF;align=center;spacing=5;fontStyle=0;arcSize=7;perimeterSpacing=2;" parent="1" vertex="1"><mxGeometry x="180" y="330.5" width="150" height="60" as="geometry"/></mxCell><mxCell id="1757" value="" style="edgeStyle=none;rounded=0;jumpStyle=none;html=1;shadow=0;labelBackgroundColor=none;startArrow=none;startFill=0;endArrow=classic;endFill=1;jettySize=auto;orthogonalLoop=1;strokeColor=#E85642;strokeWidth=3;fontFamily=Helvetica;fontSize=14;fontColor=#FFFFFF;spacing=5;" parent="1" source="1760" target="1763" edge="1"><mxGeometry relative="1" as="geometry"/></mxCell><mxCell id="1758" value="" style="edgeStyle=none;rounded=0;jumpStyle=none;html=1;shadow=0;labelBackgroundColor=none;startArrow=none;startFill=0;endArrow=classic;endFill=1;jettySize=auto;orthogonalLoop=1;strokeColor=#E85642;strokeWidth=3;fontFamily=Helvetica;fontSize=14;fontColor=#FFFFFF;spacing=5;" parent="1" source="1760" target="1762" edge="1"><mxGeometry relative="1" as="geometry"/></mxCell><mxCell id="1759" value="" style="edgeStyle=none;rounded=0;jumpStyle=none;html=1;shadow=0;labelBackgroundColor=none;startArrow=none;startFill=0;endArrow=classic;endFill=1;jettySize=auto;orthogonalLoop=1;strokeColor=#E85642;strokeWidth=3;fontFamily=Helvetica;fontSize=14;fontColor=#FFFFFF;spacing=5;" parent="1" source="1760" edge="1"><mxGeometry relative="1" as="geometry"><mxPoint x="709.1111111111113" y="718" as="targetPoint"/></mxGeometry></mxCell><mxCell id="1760" value="Protokoll" style="rounded=1;whiteSpace=wrap;html=1;shadow=0;labelBackgroundColor=none;strokeColor=none;strokeWidth=3;fillColor=#E85642;fontFamily=Helvetica;fontSize=14;fontColor=#FFFFFF;align=center;spacing=5;fontStyle=1;arcSize=7;perimeterSpacing=2;" parent="1" vertex="1"><mxGeometry x="560" y="630" width="150" height="60" as="geometry"/></mxCell><mxCell id="1761" value="http" style="rounded=1;whiteSpace=wrap;html=1;shadow=0;labelBackgroundColor=none;strokeColor=none;strokeWidth=3;fillColor=#F08E81;fontFamily=Helvetica;fontSize=14;fontColor=#FFFFFF;align=center;spacing=5;arcSize=7;perimeterSpacing=2;" parent="1" vertex="1"><mxGeometry x="667.5" y="723" width="150" height="60" as="geometry"/></mxCell><mxCell id="1762" value="https" style="rounded=1;whiteSpace=wrap;html=1;shadow=0;labelBackgroundColor=none;strokeColor=none;strokeWidth=3;fillColor=#F08E81;fontFamily=Helvetica;fontSize=14;fontColor=#FFFFFF;align=center;spacing=5;arcSize=7;perimeterSpacing=2;" parent="1" vertex="1"><mxGeometry x="555" y="797" width="150" height="60" as="geometry"/></mxCell><mxCell id="1763" value="kein" style="rounded=1;whiteSpace=wrap;html=1;shadow=0;labelBackgroundColor=none;strokeColor=none;strokeWidth=3;fillColor=#F08E81;fontFamily=Helvetica;fontSize=14;fontColor=#FFFFFF;align=center;spacing=5;arcSize=7;perimeterSpacing=2;" parent="1" vertex="1"><mxGeometry x="445" y="720" width="150" height="60" as="geometry"/></mxCell><mxCell id="1771" value="Verschleierung aggregieren" style="rounded=1;whiteSpace=wrap;html=1;shadow=0;labelBackgroundColor=none;strokeColor=none;strokeWidth=3;fillColor=#12aab5;fontFamily=Helvetica;fontSize=14;fontColor=#FFFFFF;align=center;spacing=5;fontStyle=1;arcSize=7;perimeterSpacing=2;" parent="1" vertex="1"><mxGeometry x="760" y="500.9999999999999" width="150" height="60" as="geometry"/></mxCell><mxCell id="1774" value="Generell sonderzeichen ersetzen" style="rounded=1;whiteSpace=wrap;html=1;shadow=0;labelBackgroundColor=none;strokeColor=none;strokeWidth=3;fillColor=#61c6ce;fontFamily=Helvetica;fontSize=14;fontColor=#FFFFFF;align=center;spacing=5;fontStyle=0;arcSize=7;perimeterSpacing=2;" parent="1" vertex="1"><mxGeometry x="970" y="560" width="150" height="60" as="geometry"/></mxCell><mxCell id="1775" value="" style="edgeStyle=none;rounded=1;jumpStyle=none;html=1;shadow=0;labelBackgroundColor=none;startArrow=none;startFill=0;jettySize=auto;orthogonalLoop=1;strokeColor=#12AAB5;strokeWidth=3;fontFamily=Helvetica;fontSize=14;fontColor=#FFFFFF;spacing=5;fontStyle=1;fillColor=#b0e3e6;" parent="1" target="1774" edge="1"><mxGeometry relative="1" as="geometry"><mxPoint x="912" y="558.9666666666667" as="sourcePoint"/></mxGeometry></mxCell><mxCell id="1776" value="Liste mit bekannten Trennzeichen ersetzen" style="rounded=1;whiteSpace=wrap;html=1;shadow=0;labelBackgroundColor=none;strokeColor=none;strokeWidth=3;fillColor=#61c6ce;fontFamily=Helvetica;fontSize=14;fontColor=#FFFFFF;align=center;spacing=5;fontStyle=0;arcSize=7;perimeterSpacing=2;" parent="1" vertex="1"><mxGeometry x="970" y="450" width="150" height="60" as="geometry"/></mxCell><mxCell id="1777" value="" style="edgeStyle=none;rounded=1;jumpStyle=none;html=1;shadow=0;labelBackgroundColor=none;startArrow=none;startFill=0;jettySize=auto;orthogonalLoop=1;strokeColor=#12AAB5;strokeWidth=3;fontFamily=Helvetica;fontSize=14;fontColor=#FFFFFF;spacing=5;fontStyle=1;fillColor=#b0e3e6;" parent="1" target="1776" edge="1"><mxGeometry relative="1" as="geometry"><mxPoint x="912" y="518.6333333333334" as="sourcePoint"/></mxGeometry></mxCell><mxCell id="1778" value="Whitespace entfernen" style="rounded=1;whiteSpace=wrap;html=1;shadow=0;labelBackgroundColor=none;strokeColor=none;strokeWidth=3;fillColor=#61c6ce;fontFamily=Helvetica;fontSize=14;fontColor=#FFFFFF;align=center;spacing=5;fontStyle=0;arcSize=7;perimeterSpacing=2;" parent="1" vertex="1"><mxGeometry x="840" y="370" width="150" height="60" as="geometry"/></mxCell><mxCell id="1779" value="" style="edgeStyle=none;rounded=1;jumpStyle=none;html=1;shadow=0;labelBackgroundColor=none;startArrow=none;startFill=0;jettySize=auto;orthogonalLoop=1;strokeColor=#12AAB5;strokeWidth=3;fontFamily=Helvetica;fontSize=14;fontColor=#FFFFFF;spacing=5;fontStyle=1;fillColor=#b0e3e6;" parent="1" target="1778" edge="1"><mxGeometry relative="1" as="geometry"><mxPoint x="853.1560283687941" y="509" as="sourcePoint"/></mxGeometry></mxCell><mxCell id="0lXla4fBnHv5ZySxzOYu-1779" value="Niedrige Priorität" style="text;html=1;strokeColor=none;fillColor=none;align=center;verticalAlign=middle;whiteSpace=wrap;rounded=0;" parent="1" vertex="1"><mxGeometry x="645" y="570" width="60" height="30" as="geometry"/></mxCell><mxCell id="0lXla4fBnHv5ZySxzOYu-1781" value="" style="edgeStyle=none;rounded=1;jumpStyle=none;html=1;shadow=0;labelBackgroundColor=none;startArrow=none;startFill=0;jettySize=auto;orthogonalLoop=1;strokeColor=#E85642;strokeWidth=3;fontFamily=Helvetica;fontSize=14;fontColor=#FFFFFF;spacing=5;fontStyle=1;fillColor=#b0e3e6;exitX=0;exitY=0.25;exitDx=0;exitDy=0;entryX=1;entryY=0.5;entryDx=0;entryDy=0;" parent="1" source="1753" target="0lXla4fBnHv5ZySxzOYu-1783" edge="1"><mxGeometry relative="1" as="geometry"><mxPoint x="-430.4628244274809" y="314.75" as="sourcePoint"/><mxPoint x="-565.9971755725187" y="247.75" as="targetPoint"/></mxGeometry></mxCell><mxCell id="0lXla4fBnHv5ZySxzOYu-1783" value="Buchstaben in bestimmter Anzahl (2-6)" style="rounded=1;whiteSpace=wrap;html=1;shadow=0;labelBackgroundColor=none;strokeColor=none;strokeWidth=3;fillColor=#f08e81;fontFamily=Helvetica;fontSize=14;fontColor=#FFFFFF;align=center;spacing=5;fontStyle=0;arcSize=7;perimeterSpacing=2;" parent="1" vertex="1"><mxGeometry x="-460" y="117.75" width="180" height="74.5" as="geometry"/></mxCell><mxCell id="0lXla4fBnHv5ZySxzOYu-1786" value="" style="edgeStyle=none;rounded=1;jumpStyle=none;html=1;shadow=0;labelBackgroundColor=none;startArrow=none;startFill=0;jettySize=auto;orthogonalLoop=1;strokeColor=#E85642;strokeWidth=3;fontFamily=Helvetica;fontSize=14;fontColor=#FFFFFF;spacing=5;fontStyle=1;fillColor=#b0e3e6;exitX=0;exitY=0.75;exitDx=0;exitDy=0;entryX=1;entryY=0.5;entryDx=0;entryDy=0;" parent="1" source="1753" target="0lXla4fBnHv5ZySxzOYu-1787" edge="1"><mxGeometry relative="1" as="geometry"><mxPoint x="-430.4627309236946" y="317.7500000000002" as="sourcePoint"/><mxPoint x="-564.0972690763049" y="378.2499999999998" as="targetPoint"/></mxGeometry></mxCell><mxCell id="0lXla4fBnHv5ZySxzOYu-1787" value="Buchstaben plus Punkt in der Mitte in bestimmter Anzahl" style="rounded=1;whiteSpace=wrap;html=1;shadow=0;labelBackgroundColor=none;strokeColor=none;strokeWidth=3;fillColor=#f08e81;fontFamily=Helvetica;fontSize=14;fontColor=#FFFFFF;align=center;spacing=5;fontStyle=0;arcSize=7;perimeterSpacing=2;" parent="1" vertex="1"><mxGeometry x="-456" y="231" width="180" height="74.5" as="geometry"/></mxCell><mxCell id="0lXla4fBnHv5ZySxzOYu-1789" value="Subdomain" style="rounded=1;whiteSpace=wrap;html=1;shadow=0;labelBackgroundColor=none;strokeColor=none;strokeWidth=3;fillColor=#e85642;fontFamily=Helvetica;fontSize=14;fontColor=#FFFFFF;align=center;spacing=5;fontStyle=1;arcSize=7;perimeterSpacing=2;" parent="1" vertex="1"><mxGeometry x="-80" y="450" width="150" height="60" as="geometry"/></mxCell><mxCell id="0lXla4fBnHv5ZySxzOYu-1791" value="" style="edgeStyle=none;rounded=1;jumpStyle=none;html=1;shadow=0;labelBackgroundColor=none;startArrow=none;startFill=0;jettySize=auto;orthogonalLoop=1;strokeColor=#E85642;strokeWidth=3;fontFamily=Helvetica;fontSize=14;fontColor=#FFFFFF;spacing=5;fontStyle=1;fillColor=#b0e3e6;entryX=0.5;entryY=0;entryDx=0;entryDy=0;exitX=0.5;exitY=1;exitDx=0;exitDy=0;" parent="1" source="0lXla4fBnHv5ZySxzOYu-1789" target="0lXla4fBnHv5ZySxzOYu-1792" edge="1"><mxGeometry relative="1" as="geometry"><mxPoint x="265" y="495.5" as="sourcePoint"/><mxPoint x="255" y="675.5" as="targetPoint"/></mxGeometry></mxCell><mxCell id="0lXla4fBnHv5ZySxzOYu-1792" value="Anzahl aus buchstaben plus trennzeichen" style="rounded=1;whiteSpace=wrap;html=1;shadow=0;labelBackgroundColor=none;strokeColor=none;strokeWidth=3;fillColor=#f08e81;fontFamily=Helvetica;fontSize=14;fontColor=#FFFFFF;align=center;spacing=5;fontStyle=0;arcSize=7;perimeterSpacing=2;" parent="1" vertex="1"><mxGeometry x="-140" y="590" width="150" height="60" as="geometry"/></mxCell><mxCell id="0lXla4fBnHv5ZySxzOYu-1793" value="" style="edgeStyle=none;rounded=1;jumpStyle=none;html=1;shadow=0;labelBackgroundColor=none;startArrow=none;startFill=0;jettySize=auto;orthogonalLoop=1;strokeColor=#E85642;strokeWidth=3;fontFamily=Helvetica;fontSize=14;fontColor=#FFFFFF;spacing=5;fontStyle=1;fillColor=#b0e3e6;entryX=1;entryY=0;entryDx=0;entryDy=0;exitX=0.708;exitY=1.023;exitDx=0;exitDy=0;exitPerimeter=0;" parent="1" source="1756" target="0lXla4fBnHv5ZySxzOYu-1789" edge="1"><mxGeometry relative="1" as="geometry"><mxPoint x="505" y="545.5" as="sourcePoint"/><mxPoint x="430" y="637" as="targetPoint"/></mxGeometry></mxCell><mxCell id="0lXla4fBnHv5ZySxzOYu-1794" value="Willst du follower kaufen dann gehe auf tolle dot follower dot com" style="text;html=1;strokeColor=none;fillColor=none;align=center;verticalAlign=middle;whiteSpace=wrap;rounded=0;" parent="1" vertex="1"><mxGeometry x="970" y="630" width="180" height="90" as="geometry"/></mxCell><mxCell id="0lXla4fBnHv5ZySxzOYu-1795" value="Willstdufollowerkaufendanngeheauftolledotfollowerdotcom" style="text;html=1;strokeColor=none;fillColor=none;align=center;verticalAlign=middle;whiteSpace=wrap;rounded=0;" parent="1" vertex="1"><mxGeometry x="900" y="700" width="360" height="83" as="geometry"/></mxCell><mxCell id="0lXla4fBnHv5ZySxzOYu-1796" value="Willst du follower kaufen dann gehe auf tolle.follower.com" style="text;html=1;strokeColor=none;fillColor=none;align=center;verticalAlign=middle;whiteSpace=wrap;rounded=0;" parent="1" vertex="1"><mxGeometry x="890" y="750" width="360" height="83" as="geometry"/></mxCell><mxCell id="0lXla4fBnHv5ZySxzOYu-1797" value="wir haben haben eine message queue als communicaton genutzt" style="text;html=1;strokeColor=none;fillColor=none;align=center;verticalAlign=middle;whiteSpace=wrap;rounded=0;" parent="1" vertex="1"><mxGeometry x="870" y="810" width="360" height="83" as="geometry"/></mxCell><mxCell id="0lXla4fBnHv5ZySxzOYu-1798" value="" style="edgeStyle=none;rounded=0;jumpStyle=none;html=1;shadow=0;labelBackgroundColor=none;startArrow=none;startFill=0;endArrow=classic;endFill=1;jettySize=auto;orthogonalLoop=1;strokeColor=#E85642;strokeWidth=3;fontFamily=Helvetica;fontSize=14;fontColor=#FFFFFF;spacing=5;" parent="1" source="0lXla4fBnHv5ZySxzOYu-1801" target="0lXla4fBnHv5ZySxzOYu-1804" edge="1"><mxGeometry relative="1" as="geometry"/></mxCell><mxCell id="0lXla4fBnHv5ZySxzOYu-1799" value="" style="edgeStyle=none;rounded=0;jumpStyle=none;html=1;shadow=0;labelBackgroundColor=none;startArrow=none;startFill=0;endArrow=classic;endFill=1;jettySize=auto;orthogonalLoop=1;strokeColor=#E85642;strokeWidth=3;fontFamily=Helvetica;fontSize=14;fontColor=#FFFFFF;spacing=5;" parent="1" source="0lXla4fBnHv5ZySxzOYu-1801" target="0lXla4fBnHv5ZySxzOYu-1803" edge="1"><mxGeometry relative="1" as="geometry"/></mxCell><mxCell id="0lXla4fBnHv5ZySxzOYu-1800" value="" style="edgeStyle=none;rounded=0;jumpStyle=none;html=1;shadow=0;labelBackgroundColor=none;startArrow=none;startFill=0;endArrow=classic;endFill=1;jettySize=auto;orthogonalLoop=1;strokeColor=#E85642;strokeWidth=3;fontFamily=Helvetica;fontSize=14;fontColor=#FFFFFF;spacing=5;" parent="1" source="0lXla4fBnHv5ZySxzOYu-1801" edge="1"><mxGeometry relative="1" as="geometry"><mxPoint x="324.1111111111113" y="671" as="targetPoint"/></mxGeometry></mxCell><mxCell id="0lXla4fBnHv5ZySxzOYu-1801" value="Pfad" style="rounded=1;whiteSpace=wrap;html=1;shadow=0;labelBackgroundColor=none;strokeColor=none;strokeWidth=3;fillColor=#E85642;fontFamily=Helvetica;fontSize=14;fontColor=#FFFFFF;align=center;spacing=5;fontStyle=1;arcSize=7;perimeterSpacing=2;" parent="1" vertex="1"><mxGeometry x="175" y="583" width="150" height="60" as="geometry"/></mxCell><mxCell id="0lXla4fBnHv5ZySxzOYu-1802" value="Get-Parameter" style="rounded=1;whiteSpace=wrap;html=1;shadow=0;labelBackgroundColor=none;strokeColor=none;strokeWidth=3;fillColor=#F08E81;fontFamily=Helvetica;fontSize=14;fontColor=#FFFFFF;align=center;spacing=5;arcSize=7;perimeterSpacing=2;" parent="1" vertex="1"><mxGeometry x="282.5" y="673" width="150" height="60" as="geometry"/></mxCell><mxCell id="0lXla4fBnHv5ZySxzOYu-1803" value="trailing slash" style="rounded=1;whiteSpace=wrap;html=1;shadow=0;labelBackgroundColor=none;strokeColor=none;strokeWidth=3;fillColor=#F08E81;fontFamily=Helvetica;fontSize=14;fontColor=#FFFFFF;align=center;spacing=5;arcSize=7;perimeterSpacing=2;" parent="1" vertex="1"><mxGeometry x="170" y="761.5" width="150" height="60" as="geometry"/></mxCell><mxCell id="0lXla4fBnHv5ZySxzOYu-1804" value="Generelles" style="rounded=1;whiteSpace=wrap;html=1;shadow=0;labelBackgroundColor=none;strokeColor=none;strokeWidth=3;fillColor=#F08E81;fontFamily=Helvetica;fontSize=14;fontColor=#FFFFFF;align=center;spacing=5;arcSize=7;perimeterSpacing=2;" parent="1" vertex="1"><mxGeometry x="60" y="673" width="150" height="60" as="geometry"/></mxCell><mxCell id="0lXla4fBnHv5ZySxzOYu-1805" value="Niedrige Priorität" style="text;html=1;strokeColor=none;fillColor=none;align=center;verticalAlign=middle;whiteSpace=wrap;rounded=0;" parent="1" vertex="1"><mxGeometry x="260" y="523" width="60" height="30" as="geometry"/></mxCell><mxCell id="0lXla4fBnHv5ZySxzOYu-1807" value="First Level Domain" style="rounded=1;whiteSpace=wrap;html=1;shadow=0;labelBackgroundColor=none;strokeColor=none;strokeWidth=3;fillColor=#e85642;fontFamily=Helvetica;fontSize=14;fontColor=#FFFFFF;align=center;spacing=5;fontStyle=1;arcSize=7;perimeterSpacing=2;" parent="1" vertex="1"><mxGeometry x="-270" y="390.5" width="150" height="60" as="geometry"/></mxCell><mxCell id="0lXla4fBnHv5ZySxzOYu-1808" value="" style="edgeStyle=none;rounded=1;jumpStyle=none;html=1;shadow=0;labelBackgroundColor=none;startArrow=none;startFill=0;jettySize=auto;orthogonalLoop=1;strokeColor=#E85642;strokeWidth=3;fontFamily=Helvetica;fontSize=14;fontColor=#FFFFFF;spacing=5;fontStyle=1;fillColor=#b0e3e6;entryX=1.002;entryY=0.435;entryDx=0;entryDy=0;exitX=0;exitY=0.75;exitDx=0;exitDy=0;entryPerimeter=0;" parent="1" source="1756" target="0lXla4fBnHv5ZySxzOYu-1807" edge="1"><mxGeometry relative="1" as="geometry"><mxPoint y="315" as="sourcePoint"/><mxPoint x="115.00000000000003" y="895.53" as="targetPoint"/></mxGeometry></mxCell><mxCell id="0lXla4fBnHv5ZySxzOYu-1809" value="" style="edgeStyle=none;rounded=1;jumpStyle=none;html=1;shadow=0;labelBackgroundColor=none;startArrow=none;startFill=0;jettySize=auto;orthogonalLoop=1;strokeColor=#E85642;strokeWidth=3;fontFamily=Helvetica;fontSize=14;fontColor=#FFFFFF;spacing=5;fontStyle=1;fillColor=#b0e3e6;entryX=0.5;entryY=0;entryDx=0;entryDy=0;exitX=0.25;exitY=1;exitDx=0;exitDy=0;" parent="1" source="0lXla4fBnHv5ZySxzOYu-1807" target="0lXla4fBnHv5ZySxzOYu-1810" edge="1"><mxGeometry relative="1" as="geometry"><mxPoint x="-239" y="583.75" as="sourcePoint"/><mxPoint x="-199" y="805" as="targetPoint"/></mxGeometry></mxCell><mxCell id="0lXla4fBnHv5ZySxzOYu-1810" value="Anzahl aus buchstaben plus trennzeichen" style="rounded=1;whiteSpace=wrap;html=1;shadow=0;labelBackgroundColor=none;strokeColor=none;strokeWidth=3;fillColor=#f08e81;fontFamily=Helvetica;fontSize=14;fontColor=#FFFFFF;align=center;spacing=5;fontStyle=0;arcSize=7;perimeterSpacing=2;" parent="1" vertex="1"><mxGeometry x="-335" y="550" width="150" height="60" as="geometry"/></mxCell><mxCell id="0lXla4fBnHv5ZySxzOYu-1811" value="" style="edgeStyle=none;rounded=1;jumpStyle=none;html=1;shadow=0;labelBackgroundColor=none;startArrow=none;startFill=0;jettySize=auto;orthogonalLoop=1;strokeColor=#1699D3;strokeWidth=3;fontFamily=Helvetica;fontSize=14;fontColor=#FFFFFF;spacing=5;fontStyle=1;fillColor=#b0e3e6;exitX=0.5;exitY=0;exitDx=0;exitDy=0;entryX=0.804;entryY=0.981;entryDx=0;entryDy=0;entryPerimeter=0;" parent="1" source="1754" target="0lXla4fBnHv5ZySxzOYu-1812" edge="1"><mxGeometry relative="1" as="geometry"><mxPoint x="329.9972690763052" y="14.000000000000227" as="sourcePoint"/><mxPoint x="250" y="169.5" as="targetPoint"/></mxGeometry></mxCell><mxCell id="0lXla4fBnHv5ZySxzOYu-1812" value="First Level plus tld&lt;br&gt;DNS / DIG Check" style="rounded=1;whiteSpace=wrap;html=1;shadow=0;labelBackgroundColor=none;strokeColor=none;strokeWidth=3;fillColor=#64BBE2;fontFamily=Helvetica;fontSize=14;fontColor=#FFFFFF;align=center;spacing=5;fontStyle=0;arcSize=7;perimeterSpacing=2;" parent="1" vertex="1"><mxGeometry x="80" y="-120" width="180" height="74.5" as="geometry"/></mxCell><mxCell id="0lXla4fBnHv5ZySxzOYu-1813" value="" style="edgeStyle=none;rounded=1;jumpStyle=none;html=1;shadow=0;labelBackgroundColor=none;startArrow=none;startFill=0;jettySize=auto;orthogonalLoop=1;strokeColor=#E85642;strokeWidth=3;fontFamily=Helvetica;fontSize=14;fontColor=#FFFFFF;spacing=5;fontStyle=1;fillColor=#b0e3e6;exitX=0.25;exitY=0;exitDx=0;exitDy=0;entryX=1;entryY=0.5;entryDx=0;entryDy=0;" parent="1" source="1756" target="1753" edge="1"><mxGeometry relative="1" as="geometry"><mxPoint x="-190.3627309236948" y="319.5000000000002" as="sourcePoint"/><mxPoint x="-323.99726907630463" y="379.9999999999998" as="targetPoint"/></mxGeometry></mxCell><mxCell id="0lXla4fBnHv5ZySxzOYu-1814" value="Denylist / Wordlist / Termlist" style="rounded=1;whiteSpace=wrap;html=1;shadow=0;labelBackgroundColor=none;strokeColor=none;strokeWidth=3;fillColor=#2F5B7C;fontFamily=Helvetica;fontSize=16;fontColor=#FFFFFF;align=center;fontStyle=1;spacing=5;arcSize=7;perimeterSpacing=2;" parent="1" vertex="1"><mxGeometry x="1160" y="117.75" width="150" height="70" as="geometry"/></mxCell><mxCell id="0lXla4fBnHv5ZySxzOYu-1815" value="Message Filter" style="rounded=1;whiteSpace=wrap;html=1;shadow=0;labelBackgroundColor=none;strokeColor=none;strokeWidth=3;fillColor=#1FBF13;fontFamily=Helvetica;fontSize=16;fontColor=#FFFFFF;align=center;fontStyle=1;spacing=5;arcSize=7;perimeterSpacing=2;" parent="1" vertex="1"><mxGeometry x="1030" y="-130" width="150" height="70" as="geometry"/></mxCell><mxCell id="0lXla4fBnHv5ZySxzOYu-1816" value="" style="edgeStyle=none;rounded=0;jumpStyle=none;html=1;shadow=0;labelBackgroundColor=none;startArrow=none;startFill=0;endArrow=classic;endFill=1;jettySize=auto;orthogonalLoop=1;strokeColor=#1FBF13;strokeWidth=3;fontFamily=Helvetica;fontSize=16;fontColor=#23445D;spacing=5;exitX=0.75;exitY=1;exitDx=0;exitDy=0;entryX=0.5;entryY=0;entryDx=0;entryDy=0;" parent="1" source="0lXla4fBnHv5ZySxzOYu-1815" target="0lXla4fBnHv5ZySxzOYu-1814" edge="1"><mxGeometry relative="1" as="geometry"><mxPoint x="1210" y="-19.99962264150969" as="sourcePoint"/><mxPoint x="1324.5800865800866" y="29.939999999999543" as="targetPoint"/></mxGeometry></mxCell><mxCell id="0lXla4fBnHv5ZySxzOYu-1817" value="" style="edgeStyle=none;rounded=0;jumpStyle=none;html=1;shadow=0;labelBackgroundColor=none;startArrow=none;startFill=0;endArrow=classic;endFill=1;jettySize=auto;orthogonalLoop=1;strokeColor=#1FBF13;strokeWidth=3;fontFamily=Helvetica;fontSize=16;fontColor=#23445D;spacing=5;exitX=0.25;exitY=1;exitDx=0;exitDy=0;entryX=1;entryY=0;entryDx=0;entryDy=0;" parent="1" source="0lXla4fBnHv5ZySxzOYu-1815" target="1749" edge="1"><mxGeometry relative="1" as="geometry"><mxPoint x="940" y="14" as="sourcePoint"/><mxPoint x="910" y="80" as="targetPoint"/></mxGeometry></mxCell><mxCell id="0lXla4fBnHv5ZySxzOYu-1818" value="Result / Allowlist" style="rounded=1;whiteSpace=wrap;html=1;shadow=0;labelBackgroundColor=none;strokeColor=none;strokeWidth=3;fillColor=#2F5B7C;fontFamily=Helvetica;fontSize=16;fontColor=#FFFFFF;align=center;fontStyle=1;spacing=5;arcSize=7;perimeterSpacing=2;" parent="1" vertex="1"><mxGeometry x="610" y="10" width="150" height="70" as="geometry"/></mxCell><mxCell id="0lXla4fBnHv5ZySxzOYu-1819" value="Gewichtung" style="rounded=1;whiteSpace=wrap;html=1;shadow=0;labelBackgroundColor=none;strokeColor=none;strokeWidth=3;fillColor=#2F5B7C;fontFamily=Helvetica;fontSize=16;fontColor=#FFFFFF;align=center;fontStyle=1;spacing=5;arcSize=7;perimeterSpacing=2;" parent="1" vertex="1"><mxGeometry x="390" y="47.75" width="150" height="70" as="geometry"/></mxCell><mxCell id="0lXla4fBnHv5ZySxzOYu-1820" value="" style="edgeStyle=none;rounded=0;jumpStyle=none;html=1;shadow=0;labelBackgroundColor=none;startArrow=none;startFill=0;endArrow=classic;endFill=1;jettySize=auto;orthogonalLoop=1;strokeColor=#2F5B7C;strokeWidth=3;fontFamily=Helvetica;fontSize=16;fontColor=#23445D;spacing=5;exitX=0.5;exitY=0;exitDx=0;exitDy=0;entryX=0.5;entryY=1;entryDx=0;entryDy=0;" parent="1" source="1749" target="0lXla4fBnHv5ZySxzOYu-1819" edge="1"><mxGeometry relative="1" as="geometry"><mxPoint x="515.4540000000002" y="270" as="sourcePoint"/><mxPoint x="280" y="399.98" as="targetPoint"/></mxGeometry></mxCell><mxCell id="0lXla4fBnHv5ZySxzOYu-1821" value="" style="edgeStyle=none;rounded=0;jumpStyle=none;html=1;shadow=0;labelBackgroundColor=none;startArrow=none;startFill=0;endArrow=classic;endFill=1;jettySize=auto;orthogonalLoop=1;strokeColor=#2F5B7C;strokeWidth=3;fontFamily=Helvetica;fontSize=16;fontColor=#23445D;spacing=5;entryX=0;entryY=0.5;entryDx=0;entryDy=0;exitX=0.987;exitY=0.922;exitDx=0;exitDy=0;exitPerimeter=0;" parent="1" source="0lXla4fBnHv5ZySxzOYu-1819" target="0lXla4fBnHv5ZySxzOYu-1818" edge="1"><mxGeometry relative="1" as="geometry"><mxPoint x="550" y="82" as="sourcePoint"/><mxPoint x="480" y="28" as="targetPoint"/></mxGeometry></mxCell><mxCell id="0lXla4fBnHv5ZySxzOYu-1822" value="" style="edgeStyle=none;rounded=0;jumpStyle=none;html=1;shadow=0;labelBackgroundColor=none;startArrow=none;startFill=0;endArrow=classic;endFill=1;jettySize=auto;orthogonalLoop=1;strokeColor=#2F5B7C;strokeWidth=3;fontFamily=Helvetica;fontSize=16;fontColor=#23445D;spacing=5;exitX=0.75;exitY=0;exitDx=0;exitDy=0;entryX=0;entryY=0.5;entryDx=0;entryDy=0;" parent="1" source="0lXla4fBnHv5ZySxzOYu-1818" target="0lXla4fBnHv5ZySxzOYu-1815" edge="1"><mxGeometry relative="1" as="geometry"><mxPoint x="760" y="0.5" as="sourcePoint"/><mxPoint x="878" y="-81" as="targetPoint"/></mxGeometry></mxCell><mxCell id="0lXla4fBnHv5ZySxzOYu-1823" value="Context with Cancel" style="text;html=1;strokeColor=none;fillColor=none;align=center;verticalAlign=middle;whiteSpace=wrap;rounded=0;" parent="1" vertex="1"><mxGeometry x="1070" y="-10" width="80" height="40" as="geometry"/></mxCell><mxCell id="DGpPqzOBTDfKTs_W-NqE-1779" value="" style="edgeStyle=none;rounded=1;jumpStyle=none;html=1;shadow=0;labelBackgroundColor=none;startArrow=none;startFill=0;jettySize=auto;orthogonalLoop=1;strokeColor=#E85642;strokeWidth=3;fontFamily=Helvetica;fontSize=14;fontColor=#FFFFFF;spacing=5;fontStyle=1;fillColor=#b0e3e6;entryX=0.5;entryY=0;entryDx=0;entryDy=0;exitX=1;exitY=1;exitDx=0;exitDy=0;" parent="1" source="1756" target="1760" edge="1"><mxGeometry relative="1" as="geometry"><mxPoint x="560.0020000000002" y="498.9720000000002" as="sourcePoint"/><mxPoint x="344.97" y="553" as="targetPoint"/></mxGeometry></mxCell><mxCell id="DGpPqzOBTDfKTs_W-NqE-1780" value="" style="edgeStyle=none;rounded=1;jumpStyle=none;html=1;shadow=0;labelBackgroundColor=none;startArrow=none;startFill=0;jettySize=auto;orthogonalLoop=1;strokeColor=#E85642;strokeWidth=3;fontFamily=Helvetica;fontSize=14;fontColor=#FFFFFF;spacing=5;fontStyle=1;fillColor=#b0e3e6;entryX=0.25;entryY=0;entryDx=0;entryDy=0;exitX=0.844;exitY=0.992;exitDx=0;exitDy=0;exitPerimeter=0;" parent="1" source="1756" target="0lXla4fBnHv5ZySxzOYu-1801" edge="1"><mxGeometry relative="1" as="geometry"><mxPoint x="292" y="450" as="sourcePoint"/><mxPoint x="595" y="685.5" as="targetPoint"/></mxGeometry></mxCell><mxCell id="DGpPqzOBTDfKTs_W-NqE-1782" value="" style="edgeStyle=none;rounded=0;jumpStyle=none;html=1;shadow=0;labelBackgroundColor=none;startArrow=none;startFill=0;endArrow=classic;endFill=1;jettySize=auto;orthogonalLoop=1;strokeColor=#2F5B7C;strokeWidth=3;fontFamily=Helvetica;fontSize=16;fontColor=#23445D;spacing=5;entryX=0.75;entryY=1;entryDx=0;entryDy=0;exitX=0.25;exitY=0;exitDx=0;exitDy=0;" parent="1" source="1749" target="1754" edge="1"><mxGeometry relative="1" as="geometry"><mxPoint x="521" y="347.205882352941" as="sourcePoint"/><mxPoint x="360" y="310" as="targetPoint"/></mxGeometry></mxCell><mxCell id="DGpPqzOBTDfKTs_W-NqE-1783" value="" style="edgeStyle=none;rounded=0;jumpStyle=none;html=1;shadow=0;labelBackgroundColor=none;startArrow=none;startFill=0;endArrow=classic;endFill=1;jettySize=auto;orthogonalLoop=1;strokeColor=#2F5B7C;strokeWidth=3;fontFamily=Helvetica;fontSize=16;fontColor=#23445D;spacing=5;entryX=0;entryY=0.5;entryDx=0;entryDy=0;exitX=1;exitY=0.5;exitDx=0;exitDy=0;" parent="1" source="1754" target="0lXla4fBnHv5ZySxzOYu-1819" edge="1"><mxGeometry relative="1" as="geometry"><mxPoint x="390" y="160" as="sourcePoint"/><mxPoint x="370" y="130" as="targetPoint"/></mxGeometry></mxCell><mxCell id="DGpPqzOBTDfKTs_W-NqE-1784" value="URL Parse net/url" style="rounded=1;whiteSpace=wrap;html=1;shadow=0;labelBackgroundColor=none;strokeColor=none;strokeWidth=3;fillColor=#64BBE2;fontFamily=Helvetica;fontSize=14;fontColor=#FFFFFF;align=center;spacing=5;fontStyle=0;arcSize=7;perimeterSpacing=2;" parent="1" vertex="1"><mxGeometry x="300" y="-120" width="180" height="74.5" as="geometry"/></mxCell><mxCell id="DGpPqzOBTDfKTs_W-NqE-1785" value="" style="edgeStyle=none;rounded=1;jumpStyle=none;html=1;shadow=0;labelBackgroundColor=none;startArrow=none;startFill=0;jettySize=auto;orthogonalLoop=1;strokeColor=#1699D3;strokeWidth=3;fontFamily=Helvetica;fontSize=14;fontColor=#FFFFFF;spacing=5;fontStyle=1;fillColor=#b0e3e6;exitX=0.75;exitY=0;exitDx=0;exitDy=0;entryX=0.19;entryY=0.981;entryDx=0;entryDy=0;entryPerimeter=0;" parent="1" source="1754" target="DGpPqzOBTDfKTs_W-NqE-1784" edge="1"><mxGeometry relative="1" as="geometry"><mxPoint x="384.06" y="225" as="sourcePoint"/><mxPoint x="359.99600000000015" y="-42.99150000000009" as="targetPoint"/></mxGeometry></mxCell><mxCell id="DGpPqzOBTDfKTs_W-NqE-1786" value="" style="edgeStyle=none;rounded=1;jumpStyle=none;html=1;shadow=0;labelBackgroundColor=none;startArrow=none;startFill=0;jettySize=auto;orthogonalLoop=1;strokeColor=#E85642;strokeWidth=3;fontFamily=Helvetica;fontSize=14;fontColor=#FFFFFF;spacing=5;fontStyle=1;fillColor=#b0e3e6;exitX=0.25;exitY=0;exitDx=0;exitDy=0;entryX=0.5;entryY=1;entryDx=0;entryDy=0;" parent="1" source="1753" target="DGpPqzOBTDfKTs_W-NqE-1787" edge="1"><mxGeometry relative="1" as="geometry"><mxPoint x="-85" y="207.74999999999977" as="sourcePoint"/><mxPoint x="-185" y="117.75" as="targetPoint"/></mxGeometry></mxCell><mxCell id="DGpPqzOBTDfKTs_W-NqE-1787" value="message contains TLD-Liste" style="rounded=1;whiteSpace=wrap;html=1;shadow=0;labelBackgroundColor=none;strokeColor=none;strokeWidth=3;fillColor=#f08e81;fontFamily=Helvetica;fontSize=14;fontColor=#FFFFFF;align=center;spacing=5;fontStyle=0;arcSize=7;perimeterSpacing=2;" parent="1" vertex="1"><mxGeometry x="-250" y="30" width="180" height="74.5" as="geometry"/></mxCell><mxCell id="1780" value="" style="edgeStyle=none;rounded=0;jumpStyle=none;html=1;shadow=0;labelBackgroundColor=none;startArrow=none;startFill=0;endArrow=classic;endFill=1;jettySize=auto;orthogonalLoop=1;strokeColor=#2F5B7C;strokeWidth=3;fontFamily=Helvetica;fontSize=16;fontColor=#23445D;spacing=5;exitX=0.75;exitY=0;exitDx=0;exitDy=0;entryX=0.25;entryY=1;entryDx=0;entryDy=0;" edge="1" parent="1" source="1749" target="1781"><mxGeometry relative="1" as="geometry"><mxPoint x="1310" y="489.13" as="sourcePoint"/><mxPoint x="1245" y="310.88" as="targetPoint"/></mxGeometry></mxCell><mxCell id="1781" value="Cache" style="rounded=1;whiteSpace=wrap;html=1;shadow=0;labelBackgroundColor=none;strokeColor=none;strokeWidth=3;fillColor=#2F5B7C;fontFamily=Helvetica;fontSize=16;fontColor=#FFFFFF;align=center;fontStyle=1;spacing=5;arcSize=7;perimeterSpacing=2;" vertex="1" parent="1"><mxGeometry x="585" y="161" width="150" height="70" as="geometry"/></mxCell><mxCell id="1782" value="" style="edgeStyle=none;rounded=0;jumpStyle=none;html=1;shadow=0;labelBackgroundColor=none;startArrow=none;startFill=0;endArrow=classic;endFill=1;jettySize=auto;orthogonalLoop=1;strokeColor=#2F5B7C;strokeWidth=3;fontFamily=Helvetica;fontSize=16;fontColor=#23445D;spacing=5;exitX=0.5;exitY=0;exitDx=0;exitDy=0;entryX=0.5;entryY=1;entryDx=0;entryDy=0;" edge="1" parent="1" source="1781" target="0lXla4fBnHv5ZySxzOYu-1818"><mxGeometry relative="1" as="geometry"><mxPoint x="1025" y="328.2500000000001" as="sourcePoint"/><mxPoint x="960" y="150.0000000000001" as="targetPoint"/></mxGeometry></mxCell><mxCell id="1783" value="" style="edgeStyle=none;rounded=0;jumpStyle=none;html=1;shadow=0;labelBackgroundColor=none;startArrow=none;startFill=0;endArrow=classic;endFill=1;jettySize=auto;orthogonalLoop=1;strokeColor=#2F5B7C;strokeWidth=3;fontFamily=Helvetica;fontSize=16;fontColor=#23445D;spacing=5;exitX=0.25;exitY=1;exitDx=0;exitDy=0;entryX=0.25;entryY=0;entryDx=0;entryDy=0;" edge="1" parent="1" source="0lXla4fBnHv5ZySxzOYu-1818" target="1781"><mxGeometry relative="1" as="geometry"><mxPoint x="670" y="169" as="sourcePoint"/><mxPoint x="695" y="92" as="targetPoint"/></mxGeometry></mxCell></root></mxGraphModel></diagram></mxfile>